<mxfile host="app.diagrams.net" modified="2023-08-23T18:00:04.325Z" agent="Mozilla/5.0 (Windows NT 10.0; Win64; x64) AppleWebKit/537.36 (KHTML, like Gecko) Chrome/115.0.0.0 Safari/537.36 Edg/115.0.1901.203" etag="uygMpn6KaiDdWWewrz1H" version="21.6.8" type="github">
  <diagram name="PÃ¡gina-1" id="bcR1xl-ATKyn7uxblzfL">
    <mxGraphModel dx="1152" dy="717" grid="1" gridSize="10" guides="1" tooltips="1" connect="1" arrows="1" fold="1" page="1" pageScale="1" pageWidth="827" pageHeight="1169" math="0" shadow="0">
      <root>
        <mxCell id="0" />
        <mxCell id="1" parent="0" />
        <mxCell id="erYnmfh7KymrD9iURdZM-40" value="Follower" style="swimlane;whiteSpace=wrap;html=1;" vertex="1" parent="1">
          <mxGeometry x="280" y="20" width="280" height="1140" as="geometry" />
        </mxCell>
        <mxCell id="erYnmfh7KymrD9iURdZM-281" style="edgeStyle=orthogonalEdgeStyle;rounded=0;orthogonalLoop=1;jettySize=auto;html=1;exitX=0.5;exitY=1;exitDx=0;exitDy=0;entryX=0.5;entryY=0;entryDx=0;entryDy=0;" edge="1" parent="erYnmfh7KymrD9iURdZM-40" source="erYnmfh7KymrD9iURdZM-187" target="erYnmfh7KymrD9iURdZM-212">
          <mxGeometry relative="1" as="geometry" />
        </mxCell>
        <mxCell id="erYnmfh7KymrD9iURdZM-187" value="" style="ellipse;whiteSpace=wrap;html=1;aspect=fixed;fillColor=#000000;" vertex="1" parent="erYnmfh7KymrD9iURdZM-40">
          <mxGeometry x="124" y="51" width="20" height="20" as="geometry" />
        </mxCell>
        <mxCell id="erYnmfh7KymrD9iURdZM-188" style="edgeStyle=orthogonalEdgeStyle;rounded=0;orthogonalLoop=1;jettySize=auto;html=1;exitX=0.5;exitY=1;exitDx=0;exitDy=0;entryX=0;entryY=0.5;entryDx=0;entryDy=0;" edge="1" parent="erYnmfh7KymrD9iURdZM-40" source="erYnmfh7KymrD9iURdZM-189">
          <mxGeometry relative="1" as="geometry">
            <mxPoint x="89.74000000000001" y="821" as="sourcePoint" />
            <mxPoint x="82.5" y="136" as="targetPoint" />
            <Array as="points">
              <mxPoint x="83" y="940" />
              <mxPoint x="83" y="926" />
              <mxPoint x="20" y="926" />
              <mxPoint x="20" y="136" />
            </Array>
          </mxGeometry>
        </mxCell>
        <mxCell id="erYnmfh7KymrD9iURdZM-189" value="Move towards the nearest group" style="rounded=1;whiteSpace=wrap;html=1;fillColor=#d5e8d4;strokeColor=#82b366;" vertex="1" parent="erYnmfh7KymrD9iURdZM-40">
          <mxGeometry x="27.5" y="911" width="105" height="29" as="geometry" />
        </mxCell>
        <mxCell id="erYnmfh7KymrD9iURdZM-190" value="Exchange color/number" style="rounded=1;whiteSpace=wrap;html=1;fillColor=#d5e8d4;strokeColor=#82b366;" vertex="1" parent="erYnmfh7KymrD9iURdZM-40">
          <mxGeometry x="84.5" y="311" width="100" height="40" as="geometry" />
        </mxCell>
        <mxCell id="erYnmfh7KymrD9iURdZM-191" value="Are they equal?" style="rhombus;whiteSpace=wrap;html=1;fillColor=#fff2cc;strokeColor=#d6b656;" vertex="1" parent="erYnmfh7KymrD9iURdZM-40">
          <mxGeometry x="93.24000000000001" y="381" width="80" height="80" as="geometry" />
        </mxCell>
        <mxCell id="erYnmfh7KymrD9iURdZM-192" style="edgeStyle=orthogonalEdgeStyle;rounded=0;orthogonalLoop=1;jettySize=auto;html=1;exitX=0.5;exitY=1;exitDx=0;exitDy=0;entryX=0.5;entryY=0;entryDx=0;entryDy=0;" edge="1" parent="erYnmfh7KymrD9iURdZM-40" source="erYnmfh7KymrD9iURdZM-190" target="erYnmfh7KymrD9iURdZM-191">
          <mxGeometry relative="1" as="geometry" />
        </mxCell>
        <mxCell id="erYnmfh7KymrD9iURdZM-197" value="Is that entity a group?" style="rhombus;whiteSpace=wrap;html=1;fillColor=#fff2cc;strokeColor=#d6b656;" vertex="1" parent="erYnmfh7KymrD9iURdZM-40">
          <mxGeometry x="67.74000000000001" y="491" width="130" height="89" as="geometry" />
        </mxCell>
        <mxCell id="erYnmfh7KymrD9iURdZM-198" style="edgeStyle=orthogonalEdgeStyle;rounded=0;orthogonalLoop=1;jettySize=auto;html=1;entryX=0.5;entryY=0;entryDx=0;entryDy=0;" edge="1" parent="erYnmfh7KymrD9iURdZM-40" source="erYnmfh7KymrD9iURdZM-191" target="erYnmfh7KymrD9iURdZM-197">
          <mxGeometry relative="1" as="geometry" />
        </mxCell>
        <mxCell id="erYnmfh7KymrD9iURdZM-199" value="Yes" style="edgeLabel;html=1;align=center;verticalAlign=middle;resizable=0;points=[];" vertex="1" connectable="0" parent="erYnmfh7KymrD9iURdZM-198">
          <mxGeometry x="-0.2619" y="-2" relative="1" as="geometry">
            <mxPoint y="-1" as="offset" />
          </mxGeometry>
        </mxCell>
        <mxCell id="erYnmfh7KymrD9iURdZM-200" value="Create new group with the individual agent" style="rounded=1;whiteSpace=wrap;html=1;fillColor=#d5e8d4;strokeColor=#82b366;" vertex="1" parent="erYnmfh7KymrD9iURdZM-40">
          <mxGeometry x="134.5" y="661" width="120" height="60" as="geometry" />
        </mxCell>
        <mxCell id="erYnmfh7KymrD9iURdZM-193" style="edgeStyle=orthogonalEdgeStyle;rounded=0;orthogonalLoop=1;jettySize=auto;html=1;entryX=0.5;entryY=0;entryDx=0;entryDy=0;" edge="1" parent="erYnmfh7KymrD9iURdZM-40" source="erYnmfh7KymrD9iURdZM-197" target="erYnmfh7KymrD9iURdZM-200">
          <mxGeometry relative="1" as="geometry" />
        </mxCell>
        <mxCell id="erYnmfh7KymrD9iURdZM-194" value="No" style="edgeLabel;html=1;align=center;verticalAlign=middle;resizable=0;points=[];" vertex="1" connectable="0" parent="erYnmfh7KymrD9iURdZM-193">
          <mxGeometry x="0.2144" relative="1" as="geometry">
            <mxPoint x="-15" as="offset" />
          </mxGeometry>
        </mxCell>
        <mxCell id="erYnmfh7KymrD9iURdZM-201" value="Join group" style="rounded=1;whiteSpace=wrap;html=1;fillColor=#d5e8d4;strokeColor=#82b366;" vertex="1" parent="erYnmfh7KymrD9iURdZM-40">
          <mxGeometry x="27.5" y="661" width="65" height="29" as="geometry" />
        </mxCell>
        <mxCell id="erYnmfh7KymrD9iURdZM-195" style="edgeStyle=orthogonalEdgeStyle;rounded=0;orthogonalLoop=1;jettySize=auto;html=1;" edge="1" parent="erYnmfh7KymrD9iURdZM-40" source="erYnmfh7KymrD9iURdZM-197" target="erYnmfh7KymrD9iURdZM-201">
          <mxGeometry relative="1" as="geometry" />
        </mxCell>
        <mxCell id="erYnmfh7KymrD9iURdZM-196" value="Yes" style="edgeLabel;html=1;align=center;verticalAlign=middle;resizable=0;points=[];" vertex="1" connectable="0" parent="erYnmfh7KymrD9iURdZM-195">
          <mxGeometry x="-0.1478" y="3" relative="1" as="geometry">
            <mxPoint x="-10" as="offset" />
          </mxGeometry>
        </mxCell>
        <mxCell id="erYnmfh7KymrD9iURdZM-202" style="edgeStyle=orthogonalEdgeStyle;rounded=0;orthogonalLoop=1;jettySize=auto;html=1;" edge="1" parent="erYnmfh7KymrD9iURdZM-40" source="erYnmfh7KymrD9iURdZM-206" target="erYnmfh7KymrD9iURdZM-189">
          <mxGeometry relative="1" as="geometry" />
        </mxCell>
        <mxCell id="erYnmfh7KymrD9iURdZM-203" value="Yes" style="edgeLabel;html=1;align=center;verticalAlign=middle;resizable=0;points=[];" vertex="1" connectable="0" parent="erYnmfh7KymrD9iURdZM-202">
          <mxGeometry x="-0.4133" y="-5" relative="1" as="geometry">
            <mxPoint x="-27" y="5" as="offset" />
          </mxGeometry>
        </mxCell>
        <mxCell id="erYnmfh7KymrD9iURdZM-206" value="Is there a group in vision field?" style="rhombus;whiteSpace=wrap;html=1;fillColor=#fff2cc;strokeColor=#d6b656;" vertex="1" parent="erYnmfh7KymrD9iURdZM-40">
          <mxGeometry x="89.74000000000001" y="781" width="83.5" height="80" as="geometry" />
        </mxCell>
        <mxCell id="erYnmfh7KymrD9iURdZM-209" style="edgeStyle=orthogonalEdgeStyle;rounded=0;orthogonalLoop=1;jettySize=auto;html=1;" edge="1" parent="erYnmfh7KymrD9iURdZM-40" source="erYnmfh7KymrD9iURdZM-212">
          <mxGeometry relative="1" as="geometry">
            <mxPoint x="178" y="821" as="targetPoint" />
            <Array as="points">
              <mxPoint x="268" y="136" />
              <mxPoint x="268" y="821" />
            </Array>
          </mxGeometry>
        </mxCell>
        <mxCell id="erYnmfh7KymrD9iURdZM-211" value="No" style="edgeLabel;html=1;align=center;verticalAlign=middle;resizable=0;points=[];" vertex="1" connectable="0" parent="erYnmfh7KymrD9iURdZM-209">
          <mxGeometry x="-0.9128" y="-3" relative="1" as="geometry">
            <mxPoint as="offset" />
          </mxGeometry>
        </mxCell>
        <mxCell id="erYnmfh7KymrD9iURdZM-212" value="Bumped into someone?" style="rhombus;whiteSpace=wrap;html=1;fillColor=#f8cecc;strokeColor=#b85450;" vertex="1" parent="erYnmfh7KymrD9iURdZM-40">
          <mxGeometry x="82.5" y="91" width="102" height="90" as="geometry" />
        </mxCell>
        <mxCell id="erYnmfh7KymrD9iURdZM-213" style="edgeStyle=orthogonalEdgeStyle;rounded=0;orthogonalLoop=1;jettySize=auto;html=1;exitX=0.5;exitY=1;exitDx=0;exitDy=0;" edge="1" parent="erYnmfh7KymrD9iURdZM-40" source="erYnmfh7KymrD9iURdZM-214" target="erYnmfh7KymrD9iURdZM-190">
          <mxGeometry relative="1" as="geometry" />
        </mxCell>
        <mxCell id="erYnmfh7KymrD9iURdZM-214" value="Turn heading towards it" style="rounded=1;whiteSpace=wrap;html=1;fillColor=#d5e8d4;strokeColor=#82b366;" vertex="1" parent="erYnmfh7KymrD9iURdZM-40">
          <mxGeometry x="82.5" y="231" width="105" height="29" as="geometry" />
        </mxCell>
        <mxCell id="erYnmfh7KymrD9iURdZM-207" style="edgeStyle=orthogonalEdgeStyle;rounded=0;orthogonalLoop=1;jettySize=auto;html=1;exitX=0.5;exitY=1;exitDx=0;exitDy=0;" edge="1" parent="erYnmfh7KymrD9iURdZM-40" source="erYnmfh7KymrD9iURdZM-212" target="erYnmfh7KymrD9iURdZM-214">
          <mxGeometry relative="1" as="geometry" />
        </mxCell>
        <mxCell id="erYnmfh7KymrD9iURdZM-208" value="Yes" style="edgeLabel;html=1;align=center;verticalAlign=middle;resizable=0;points=[];" vertex="1" connectable="0" parent="erYnmfh7KymrD9iURdZM-207">
          <mxGeometry x="-0.4381" y="4" relative="1" as="geometry">
            <mxPoint x="-4" y="3" as="offset" />
          </mxGeometry>
        </mxCell>
        <mxCell id="erYnmfh7KymrD9iURdZM-215" style="edgeStyle=orthogonalEdgeStyle;rounded=0;orthogonalLoop=1;jettySize=auto;html=1;" edge="1" parent="erYnmfh7KymrD9iURdZM-40" source="erYnmfh7KymrD9iURdZM-216">
          <mxGeometry relative="1" as="geometry">
            <mxPoint x="178" y="821" as="targetPoint" />
            <Array as="points">
              <mxPoint x="228" y="821" />
            </Array>
          </mxGeometry>
        </mxCell>
        <mxCell id="erYnmfh7KymrD9iURdZM-216" value="Turn around an angle selected at random&amp;nbsp;" style="rounded=1;whiteSpace=wrap;html=1;fillColor=#d5e8d4;strokeColor=#82b366;" vertex="1" parent="erYnmfh7KymrD9iURdZM-40">
          <mxGeometry x="158" y="911" width="105" height="60" as="geometry" />
        </mxCell>
        <mxCell id="erYnmfh7KymrD9iURdZM-204" style="edgeStyle=orthogonalEdgeStyle;rounded=0;orthogonalLoop=1;jettySize=auto;html=1;" edge="1" parent="erYnmfh7KymrD9iURdZM-40" source="erYnmfh7KymrD9iURdZM-206" target="erYnmfh7KymrD9iURdZM-216">
          <mxGeometry relative="1" as="geometry">
            <Array as="points">
              <mxPoint x="131" y="886" />
              <mxPoint x="198" y="886" />
            </Array>
          </mxGeometry>
        </mxCell>
        <mxCell id="erYnmfh7KymrD9iURdZM-205" value="No" style="edgeLabel;html=1;align=center;verticalAlign=middle;resizable=0;points=[];" vertex="1" connectable="0" parent="erYnmfh7KymrD9iURdZM-204">
          <mxGeometry x="0.2391" y="-1" relative="1" as="geometry">
            <mxPoint x="9" as="offset" />
          </mxGeometry>
        </mxCell>
        <mxCell id="erYnmfh7KymrD9iURdZM-1" value="Leader" style="swimlane;whiteSpace=wrap;html=1;startSize=23;" vertex="1" parent="1">
          <mxGeometry x="10" y="20" width="270" height="1140" as="geometry" />
        </mxCell>
        <mxCell id="erYnmfh7KymrD9iURdZM-133" value="" style="edgeStyle=orthogonalEdgeStyle;rounded=0;orthogonalLoop=1;jettySize=auto;html=1;" edge="1" parent="erYnmfh7KymrD9iURdZM-1" source="erYnmfh7KymrD9iURdZM-3" target="erYnmfh7KymrD9iURdZM-130">
          <mxGeometry relative="1" as="geometry" />
        </mxCell>
        <mxCell id="erYnmfh7KymrD9iURdZM-3" value="" style="ellipse;whiteSpace=wrap;html=1;aspect=fixed;fillColor=#000000;" vertex="1" parent="erYnmfh7KymrD9iURdZM-1">
          <mxGeometry x="118" y="50" width="20" height="20" as="geometry" />
        </mxCell>
        <mxCell id="erYnmfh7KymrD9iURdZM-153" style="edgeStyle=orthogonalEdgeStyle;rounded=0;orthogonalLoop=1;jettySize=auto;html=1;exitX=0.5;exitY=1;exitDx=0;exitDy=0;entryX=0;entryY=0.5;entryDx=0;entryDy=0;" edge="1" parent="erYnmfh7KymrD9iURdZM-1" source="erYnmfh7KymrD9iURdZM-47">
          <mxGeometry relative="1" as="geometry">
            <mxPoint x="83.74000000000001" y="820" as="sourcePoint" />
            <mxPoint x="76.5" y="135" as="targetPoint" />
            <Array as="points">
              <mxPoint x="77" y="939" />
              <mxPoint x="77" y="925" />
              <mxPoint x="14" y="925" />
              <mxPoint x="14" y="135" />
            </Array>
          </mxGeometry>
        </mxCell>
        <mxCell id="erYnmfh7KymrD9iURdZM-47" value="Move towards the nearest entity" style="rounded=1;whiteSpace=wrap;html=1;fillColor=#d5e8d4;strokeColor=#82b366;" vertex="1" parent="erYnmfh7KymrD9iURdZM-1">
          <mxGeometry x="21.5" y="910" width="105" height="29" as="geometry" />
        </mxCell>
        <mxCell id="erYnmfh7KymrD9iURdZM-54" value="Exchange color/number" style="rounded=1;whiteSpace=wrap;html=1;fillColor=#d5e8d4;strokeColor=#82b366;" vertex="1" parent="erYnmfh7KymrD9iURdZM-1">
          <mxGeometry x="78.5" y="310" width="100" height="40" as="geometry" />
        </mxCell>
        <mxCell id="erYnmfh7KymrD9iURdZM-57" value="Are they equal?" style="rhombus;whiteSpace=wrap;html=1;fillColor=#fff2cc;strokeColor=#d6b656;" vertex="1" parent="erYnmfh7KymrD9iURdZM-1">
          <mxGeometry x="87.24" y="380" width="80" height="80" as="geometry" />
        </mxCell>
        <mxCell id="erYnmfh7KymrD9iURdZM-53" style="edgeStyle=orthogonalEdgeStyle;rounded=0;orthogonalLoop=1;jettySize=auto;html=1;exitX=0.5;exitY=1;exitDx=0;exitDy=0;entryX=0.5;entryY=0;entryDx=0;entryDy=0;" edge="1" parent="erYnmfh7KymrD9iURdZM-1" source="erYnmfh7KymrD9iURdZM-54" target="erYnmfh7KymrD9iURdZM-57">
          <mxGeometry relative="1" as="geometry" />
        </mxCell>
        <mxCell id="erYnmfh7KymrD9iURdZM-136" style="edgeStyle=orthogonalEdgeStyle;rounded=0;orthogonalLoop=1;jettySize=auto;html=1;entryX=0.5;entryY=0;entryDx=0;entryDy=0;" edge="1" parent="erYnmfh7KymrD9iURdZM-1" source="erYnmfh7KymrD9iURdZM-62" target="erYnmfh7KymrD9iURdZM-63">
          <mxGeometry relative="1" as="geometry" />
        </mxCell>
        <mxCell id="erYnmfh7KymrD9iURdZM-137" value="No" style="edgeLabel;html=1;align=center;verticalAlign=middle;resizable=0;points=[];" vertex="1" connectable="0" parent="erYnmfh7KymrD9iURdZM-136">
          <mxGeometry x="0.2144" relative="1" as="geometry">
            <mxPoint x="-15" as="offset" />
          </mxGeometry>
        </mxCell>
        <mxCell id="erYnmfh7KymrD9iURdZM-138" style="edgeStyle=orthogonalEdgeStyle;rounded=0;orthogonalLoop=1;jettySize=auto;html=1;" edge="1" parent="erYnmfh7KymrD9iURdZM-1" source="erYnmfh7KymrD9iURdZM-62" target="erYnmfh7KymrD9iURdZM-68">
          <mxGeometry relative="1" as="geometry" />
        </mxCell>
        <mxCell id="erYnmfh7KymrD9iURdZM-139" value="Yes" style="edgeLabel;html=1;align=center;verticalAlign=middle;resizable=0;points=[];" vertex="1" connectable="0" parent="erYnmfh7KymrD9iURdZM-138">
          <mxGeometry x="-0.1478" y="3" relative="1" as="geometry">
            <mxPoint x="-10" as="offset" />
          </mxGeometry>
        </mxCell>
        <mxCell id="erYnmfh7KymrD9iURdZM-62" value="Is that entity a group?" style="rhombus;whiteSpace=wrap;html=1;fillColor=#fff2cc;strokeColor=#d6b656;" vertex="1" parent="erYnmfh7KymrD9iURdZM-1">
          <mxGeometry x="61.74" y="490" width="130" height="89" as="geometry" />
        </mxCell>
        <mxCell id="erYnmfh7KymrD9iURdZM-56" style="edgeStyle=orthogonalEdgeStyle;rounded=0;orthogonalLoop=1;jettySize=auto;html=1;entryX=0.5;entryY=0;entryDx=0;entryDy=0;" edge="1" parent="erYnmfh7KymrD9iURdZM-1" source="erYnmfh7KymrD9iURdZM-57" target="erYnmfh7KymrD9iURdZM-62">
          <mxGeometry relative="1" as="geometry" />
        </mxCell>
        <mxCell id="erYnmfh7KymrD9iURdZM-150" value="Yes" style="edgeLabel;html=1;align=center;verticalAlign=middle;resizable=0;points=[];" vertex="1" connectable="0" parent="erYnmfh7KymrD9iURdZM-56">
          <mxGeometry x="-0.2619" y="-2" relative="1" as="geometry">
            <mxPoint y="-1" as="offset" />
          </mxGeometry>
        </mxCell>
        <mxCell id="erYnmfh7KymrD9iURdZM-63" value="Create new group with the individual agent" style="rounded=1;whiteSpace=wrap;html=1;fillColor=#d5e8d4;strokeColor=#82b366;" vertex="1" parent="erYnmfh7KymrD9iURdZM-1">
          <mxGeometry x="128.5" y="660" width="120" height="60" as="geometry" />
        </mxCell>
        <mxCell id="erYnmfh7KymrD9iURdZM-68" value="Join group" style="rounded=1;whiteSpace=wrap;html=1;fillColor=#d5e8d4;strokeColor=#82b366;" vertex="1" parent="erYnmfh7KymrD9iURdZM-1">
          <mxGeometry x="21.5" y="660" width="65" height="29" as="geometry" />
        </mxCell>
        <mxCell id="erYnmfh7KymrD9iURdZM-127" style="edgeStyle=orthogonalEdgeStyle;rounded=0;orthogonalLoop=1;jettySize=auto;html=1;" edge="1" parent="erYnmfh7KymrD9iURdZM-1" source="erYnmfh7KymrD9iURdZM-120" target="erYnmfh7KymrD9iURdZM-47">
          <mxGeometry relative="1" as="geometry" />
        </mxCell>
        <mxCell id="erYnmfh7KymrD9iURdZM-128" value="Yes" style="edgeLabel;html=1;align=center;verticalAlign=middle;resizable=0;points=[];" vertex="1" connectable="0" parent="erYnmfh7KymrD9iURdZM-127">
          <mxGeometry x="-0.4133" y="-5" relative="1" as="geometry">
            <mxPoint x="-27" y="5" as="offset" />
          </mxGeometry>
        </mxCell>
        <mxCell id="erYnmfh7KymrD9iURdZM-182" style="edgeStyle=orthogonalEdgeStyle;rounded=0;orthogonalLoop=1;jettySize=auto;html=1;" edge="1" parent="erYnmfh7KymrD9iURdZM-1" source="erYnmfh7KymrD9iURdZM-120" target="erYnmfh7KymrD9iURdZM-181">
          <mxGeometry relative="1" as="geometry">
            <Array as="points">
              <mxPoint x="125" y="885" />
              <mxPoint x="192" y="885" />
            </Array>
          </mxGeometry>
        </mxCell>
        <mxCell id="erYnmfh7KymrD9iURdZM-183" value="No" style="edgeLabel;html=1;align=center;verticalAlign=middle;resizable=0;points=[];" vertex="1" connectable="0" parent="erYnmfh7KymrD9iURdZM-182">
          <mxGeometry x="0.2391" y="-1" relative="1" as="geometry">
            <mxPoint x="9" as="offset" />
          </mxGeometry>
        </mxCell>
        <mxCell id="erYnmfh7KymrD9iURdZM-120" value="Is there an entity in vision field?" style="rhombus;whiteSpace=wrap;html=1;fillColor=#fff2cc;strokeColor=#d6b656;" vertex="1" parent="erYnmfh7KymrD9iURdZM-1">
          <mxGeometry x="83.74" y="780" width="83.5" height="80" as="geometry" />
        </mxCell>
        <mxCell id="erYnmfh7KymrD9iURdZM-132" style="edgeStyle=orthogonalEdgeStyle;rounded=0;orthogonalLoop=1;jettySize=auto;html=1;exitX=0.5;exitY=1;exitDx=0;exitDy=0;" edge="1" parent="erYnmfh7KymrD9iURdZM-1" source="erYnmfh7KymrD9iURdZM-130" target="erYnmfh7KymrD9iURdZM-131">
          <mxGeometry relative="1" as="geometry" />
        </mxCell>
        <mxCell id="erYnmfh7KymrD9iURdZM-134" value="Yes" style="edgeLabel;html=1;align=center;verticalAlign=middle;resizable=0;points=[];" vertex="1" connectable="0" parent="erYnmfh7KymrD9iURdZM-132">
          <mxGeometry x="-0.4381" y="4" relative="1" as="geometry">
            <mxPoint x="-4" y="3" as="offset" />
          </mxGeometry>
        </mxCell>
        <mxCell id="erYnmfh7KymrD9iURdZM-141" style="edgeStyle=orthogonalEdgeStyle;rounded=0;orthogonalLoop=1;jettySize=auto;html=1;" edge="1" parent="erYnmfh7KymrD9iURdZM-1" source="erYnmfh7KymrD9iURdZM-130">
          <mxGeometry relative="1" as="geometry">
            <mxPoint x="172" y="820" as="targetPoint" />
            <Array as="points">
              <mxPoint x="262" y="135" />
              <mxPoint x="262" y="820" />
            </Array>
          </mxGeometry>
        </mxCell>
        <mxCell id="erYnmfh7KymrD9iURdZM-184" value="No" style="edgeLabel;html=1;align=center;verticalAlign=middle;resizable=0;points=[];" vertex="1" connectable="0" parent="erYnmfh7KymrD9iURdZM-141">
          <mxGeometry x="-0.9128" y="-3" relative="1" as="geometry">
            <mxPoint as="offset" />
          </mxGeometry>
        </mxCell>
        <mxCell id="erYnmfh7KymrD9iURdZM-130" value="Bumped into someone?" style="rhombus;whiteSpace=wrap;html=1;fillColor=#f8cecc;strokeColor=#b85450;" vertex="1" parent="erYnmfh7KymrD9iURdZM-1">
          <mxGeometry x="76.5" y="90" width="102" height="90" as="geometry" />
        </mxCell>
        <mxCell id="erYnmfh7KymrD9iURdZM-146" style="edgeStyle=orthogonalEdgeStyle;rounded=0;orthogonalLoop=1;jettySize=auto;html=1;exitX=0.5;exitY=1;exitDx=0;exitDy=0;" edge="1" parent="erYnmfh7KymrD9iURdZM-1" source="erYnmfh7KymrD9iURdZM-131" target="erYnmfh7KymrD9iURdZM-54">
          <mxGeometry relative="1" as="geometry" />
        </mxCell>
        <mxCell id="erYnmfh7KymrD9iURdZM-131" value="Turn heading towards it" style="rounded=1;whiteSpace=wrap;html=1;fillColor=#d5e8d4;strokeColor=#82b366;" vertex="1" parent="erYnmfh7KymrD9iURdZM-1">
          <mxGeometry x="76.5" y="230" width="105" height="29" as="geometry" />
        </mxCell>
        <mxCell id="erYnmfh7KymrD9iURdZM-185" style="edgeStyle=orthogonalEdgeStyle;rounded=0;orthogonalLoop=1;jettySize=auto;html=1;" edge="1" parent="erYnmfh7KymrD9iURdZM-1" source="erYnmfh7KymrD9iURdZM-181">
          <mxGeometry relative="1" as="geometry">
            <mxPoint x="172" y="820" as="targetPoint" />
            <Array as="points">
              <mxPoint x="222" y="820" />
            </Array>
          </mxGeometry>
        </mxCell>
        <mxCell id="erYnmfh7KymrD9iURdZM-181" value="Turn around an angle selected at random&amp;nbsp;" style="rounded=1;whiteSpace=wrap;html=1;fillColor=#d5e8d4;strokeColor=#82b366;" vertex="1" parent="erYnmfh7KymrD9iURdZM-1">
          <mxGeometry x="152" y="910" width="105" height="60" as="geometry" />
        </mxCell>
        <mxCell id="erYnmfh7KymrD9iURdZM-28" value="Collective" style="swimlane;whiteSpace=wrap;html=1;" vertex="1" parent="1">
          <mxGeometry x="560" y="20" width="260" height="1140" as="geometry" />
        </mxCell>
        <mxCell id="erYnmfh7KymrD9iURdZM-217" value="" style="ellipse;whiteSpace=wrap;html=1;aspect=fixed;fillColor=#000000;" vertex="1" parent="erYnmfh7KymrD9iURdZM-28">
          <mxGeometry x="122.5" y="50" width="20" height="20" as="geometry" />
        </mxCell>
        <mxCell id="erYnmfh7KymrD9iURdZM-218" style="edgeStyle=orthogonalEdgeStyle;rounded=0;orthogonalLoop=1;jettySize=auto;html=1;exitX=0.5;exitY=1;exitDx=0;exitDy=0;entryX=0;entryY=0.5;entryDx=0;entryDy=0;" edge="1" parent="erYnmfh7KymrD9iURdZM-28" source="erYnmfh7KymrD9iURdZM-219">
          <mxGeometry relative="1" as="geometry">
            <mxPoint x="88.24000000000001" y="820" as="sourcePoint" />
            <mxPoint x="81" y="135" as="targetPoint" />
            <Array as="points">
              <mxPoint x="78" y="1080" />
              <mxPoint x="70" y="1080" />
              <mxPoint x="70" y="1090" />
              <mxPoint x="19" y="1090" />
              <mxPoint x="19" y="135" />
            </Array>
          </mxGeometry>
        </mxCell>
        <mxCell id="erYnmfh7KymrD9iURdZM-219" value="Move towards the nearest group to the leader" style="rounded=1;whiteSpace=wrap;html=1;fillColor=#d5e8d4;strokeColor=#82b366;" vertex="1" parent="erYnmfh7KymrD9iURdZM-28">
          <mxGeometry x="26.000000000000014" y="1065" width="105" height="50" as="geometry" />
        </mxCell>
        <mxCell id="erYnmfh7KymrD9iURdZM-220" value="Exchange color/number" style="rounded=1;whiteSpace=wrap;html=1;fillColor=#d5e8d4;strokeColor=#82b366;" vertex="1" parent="erYnmfh7KymrD9iURdZM-28">
          <mxGeometry x="81.24" y="240" width="100" height="40" as="geometry" />
        </mxCell>
        <mxCell id="erYnmfh7KymrD9iURdZM-221" value="Are they equal?" style="rhombus;whiteSpace=wrap;html=1;fillColor=#fff2cc;strokeColor=#d6b656;" vertex="1" parent="erYnmfh7KymrD9iURdZM-28">
          <mxGeometry x="89.98" y="310" width="80" height="80" as="geometry" />
        </mxCell>
        <mxCell id="erYnmfh7KymrD9iURdZM-222" style="edgeStyle=orthogonalEdgeStyle;rounded=0;orthogonalLoop=1;jettySize=auto;html=1;exitX=0.5;exitY=1;exitDx=0;exitDy=0;entryX=0.5;entryY=0;entryDx=0;entryDy=0;" edge="1" parent="erYnmfh7KymrD9iURdZM-28" source="erYnmfh7KymrD9iURdZM-220" target="erYnmfh7KymrD9iURdZM-221">
          <mxGeometry relative="1" as="geometry" />
        </mxCell>
        <mxCell id="erYnmfh7KymrD9iURdZM-223" value="Is that entity a group?" style="rhombus;whiteSpace=wrap;html=1;fillColor=#fff2cc;strokeColor=#d6b656;" vertex="1" parent="erYnmfh7KymrD9iURdZM-28">
          <mxGeometry x="64.99000000000001" y="460" width="130" height="89" as="geometry" />
        </mxCell>
        <mxCell id="erYnmfh7KymrD9iURdZM-224" style="edgeStyle=orthogonalEdgeStyle;rounded=0;orthogonalLoop=1;jettySize=auto;html=1;entryX=0.5;entryY=0;entryDx=0;entryDy=0;" edge="1" parent="erYnmfh7KymrD9iURdZM-28" source="erYnmfh7KymrD9iURdZM-221" target="erYnmfh7KymrD9iURdZM-223">
          <mxGeometry relative="1" as="geometry" />
        </mxCell>
        <mxCell id="erYnmfh7KymrD9iURdZM-225" value="Yes" style="edgeLabel;html=1;align=center;verticalAlign=middle;resizable=0;points=[];" vertex="1" connectable="0" parent="erYnmfh7KymrD9iURdZM-224">
          <mxGeometry x="-0.2619" y="-2" relative="1" as="geometry">
            <mxPoint y="-1" as="offset" />
          </mxGeometry>
        </mxCell>
        <mxCell id="erYnmfh7KymrD9iURdZM-226" value="Welcome agent" style="rounded=1;whiteSpace=wrap;html=1;fillColor=#d5e8d4;strokeColor=#82b366;" vertex="1" parent="erYnmfh7KymrD9iURdZM-28">
          <mxGeometry x="122.5" y="660" width="120" height="60" as="geometry" />
        </mxCell>
        <mxCell id="erYnmfh7KymrD9iURdZM-227" style="edgeStyle=orthogonalEdgeStyle;rounded=0;orthogonalLoop=1;jettySize=auto;html=1;entryX=0.5;entryY=0;entryDx=0;entryDy=0;" edge="1" parent="erYnmfh7KymrD9iURdZM-28" source="erYnmfh7KymrD9iURdZM-223" target="erYnmfh7KymrD9iURdZM-226">
          <mxGeometry relative="1" as="geometry" />
        </mxCell>
        <mxCell id="erYnmfh7KymrD9iURdZM-228" value="No" style="edgeLabel;html=1;align=center;verticalAlign=middle;resizable=0;points=[];" vertex="1" connectable="0" parent="erYnmfh7KymrD9iURdZM-227">
          <mxGeometry x="0.2144" relative="1" as="geometry">
            <mxPoint x="-15" as="offset" />
          </mxGeometry>
        </mxCell>
        <mxCell id="erYnmfh7KymrD9iURdZM-229" value="Merge groups" style="rounded=1;whiteSpace=wrap;html=1;fillColor=#d5e8d4;strokeColor=#82b366;" vertex="1" parent="erYnmfh7KymrD9iURdZM-28">
          <mxGeometry x="26" y="660" width="65" height="29" as="geometry" />
        </mxCell>
        <mxCell id="erYnmfh7KymrD9iURdZM-230" style="edgeStyle=orthogonalEdgeStyle;rounded=0;orthogonalLoop=1;jettySize=auto;html=1;" edge="1" parent="erYnmfh7KymrD9iURdZM-28" source="erYnmfh7KymrD9iURdZM-223" target="erYnmfh7KymrD9iURdZM-229">
          <mxGeometry relative="1" as="geometry" />
        </mxCell>
        <mxCell id="erYnmfh7KymrD9iURdZM-231" value="Yes" style="edgeLabel;html=1;align=center;verticalAlign=middle;resizable=0;points=[];" vertex="1" connectable="0" parent="erYnmfh7KymrD9iURdZM-230">
          <mxGeometry x="-0.1478" y="3" relative="1" as="geometry">
            <mxPoint x="-10" as="offset" />
          </mxGeometry>
        </mxCell>
        <mxCell id="erYnmfh7KymrD9iURdZM-264" style="edgeStyle=orthogonalEdgeStyle;rounded=0;orthogonalLoop=1;jettySize=auto;html=1;" edge="1" parent="erYnmfh7KymrD9iURdZM-28">
          <mxGeometry relative="1" as="geometry">
            <mxPoint x="111.88888888888891" y="919.982932661592" as="sourcePoint" />
            <mxPoint x="111.99999999999977" y="946.0095808383232" as="targetPoint" />
          </mxGeometry>
        </mxCell>
        <mxCell id="erYnmfh7KymrD9iURdZM-265" value="Yes" style="edgeLabel;html=1;align=center;verticalAlign=middle;resizable=0;points=[];" vertex="1" connectable="0" parent="erYnmfh7KymrD9iURdZM-264">
          <mxGeometry x="-0.3355" y="3" relative="1" as="geometry">
            <mxPoint x="-3" y="3" as="offset" />
          </mxGeometry>
        </mxCell>
        <mxCell id="erYnmfh7KymrD9iURdZM-267" style="edgeStyle=orthogonalEdgeStyle;rounded=0;orthogonalLoop=1;jettySize=auto;html=1;" edge="1" parent="erYnmfh7KymrD9iURdZM-28" source="erYnmfh7KymrD9iURdZM-234" target="erYnmfh7KymrD9iURdZM-237">
          <mxGeometry relative="1" as="geometry">
            <Array as="points">
              <mxPoint x="20" y="830" />
              <mxPoint x="20" y="135" />
            </Array>
          </mxGeometry>
        </mxCell>
        <mxCell id="erYnmfh7KymrD9iURdZM-270" value="No" style="edgeLabel;html=1;align=center;verticalAlign=middle;resizable=0;points=[];" vertex="1" connectable="0" parent="erYnmfh7KymrD9iURdZM-267">
          <mxGeometry x="-0.9537" y="-1" relative="1" as="geometry">
            <mxPoint x="-20" as="offset" />
          </mxGeometry>
        </mxCell>
        <mxCell id="erYnmfh7KymrD9iURdZM-234" value="Is the number of people on the group less than a specified number?" style="rhombus;whiteSpace=wrap;html=1;fillColor=#fff2cc;strokeColor=#d6b656;" vertex="1" parent="erYnmfh7KymrD9iURdZM-28">
          <mxGeometry x="50" y="810" width="121.74" height="110" as="geometry" />
        </mxCell>
        <mxCell id="erYnmfh7KymrD9iURdZM-235" style="edgeStyle=orthogonalEdgeStyle;rounded=0;orthogonalLoop=1;jettySize=auto;html=1;entryX=1;entryY=0.5;entryDx=0;entryDy=0;" edge="1" parent="erYnmfh7KymrD9iURdZM-28" source="erYnmfh7KymrD9iURdZM-237" target="erYnmfh7KymrD9iURdZM-234">
          <mxGeometry relative="1" as="geometry">
            <mxPoint x="188" y="820" as="targetPoint" />
            <Array as="points">
              <mxPoint x="250" y="135" />
              <mxPoint x="250" y="805" />
            </Array>
          </mxGeometry>
        </mxCell>
        <mxCell id="erYnmfh7KymrD9iURdZM-236" value="No" style="edgeLabel;html=1;align=center;verticalAlign=middle;resizable=0;points=[];" vertex="1" connectable="0" parent="erYnmfh7KymrD9iURdZM-235">
          <mxGeometry x="-0.9128" y="-3" relative="1" as="geometry">
            <mxPoint as="offset" />
          </mxGeometry>
        </mxCell>
        <mxCell id="erYnmfh7KymrD9iURdZM-248" style="edgeStyle=orthogonalEdgeStyle;rounded=0;orthogonalLoop=1;jettySize=auto;html=1;" edge="1" parent="erYnmfh7KymrD9iURdZM-28" source="erYnmfh7KymrD9iURdZM-237" target="erYnmfh7KymrD9iURdZM-220">
          <mxGeometry relative="1" as="geometry" />
        </mxCell>
        <mxCell id="erYnmfh7KymrD9iURdZM-249" value="Yes" style="edgeLabel;html=1;align=center;verticalAlign=middle;resizable=0;points=[];" vertex="1" connectable="0" parent="erYnmfh7KymrD9iURdZM-248">
          <mxGeometry x="-0.2452" y="2" relative="1" as="geometry">
            <mxPoint y="-1" as="offset" />
          </mxGeometry>
        </mxCell>
        <mxCell id="erYnmfh7KymrD9iURdZM-237" value="Bumped into someone?" style="rhombus;whiteSpace=wrap;html=1;fillColor=#f8cecc;strokeColor=#b85450;" vertex="1" parent="erYnmfh7KymrD9iURdZM-28">
          <mxGeometry x="81" y="90" width="102" height="90" as="geometry" />
        </mxCell>
        <mxCell id="erYnmfh7KymrD9iURdZM-238" value="" style="edgeStyle=orthogonalEdgeStyle;rounded=0;orthogonalLoop=1;jettySize=auto;html=1;" edge="1" parent="erYnmfh7KymrD9iURdZM-28" source="erYnmfh7KymrD9iURdZM-217" target="erYnmfh7KymrD9iURdZM-237">
          <mxGeometry relative="1" as="geometry" />
        </mxCell>
        <mxCell id="erYnmfh7KymrD9iURdZM-260" style="edgeStyle=orthogonalEdgeStyle;rounded=0;orthogonalLoop=1;jettySize=auto;html=1;exitX=0.5;exitY=1;exitDx=0;exitDy=0;" edge="1" parent="erYnmfh7KymrD9iURdZM-28" source="erYnmfh7KymrD9iURdZM-255" target="erYnmfh7KymrD9iURdZM-219">
          <mxGeometry relative="1" as="geometry">
            <Array as="points">
              <mxPoint x="111" y="1040" />
              <mxPoint x="79" y="1040" />
            </Array>
          </mxGeometry>
        </mxCell>
        <mxCell id="erYnmfh7KymrD9iURdZM-263" value="Yes" style="edgeLabel;html=1;align=center;verticalAlign=middle;resizable=0;points=[];" vertex="1" connectable="0" parent="erYnmfh7KymrD9iURdZM-260">
          <mxGeometry x="0.0399" relative="1" as="geometry">
            <mxPoint x="6" as="offset" />
          </mxGeometry>
        </mxCell>
        <mxCell id="erYnmfh7KymrD9iURdZM-255" value="Is there a group in the vision field of the leader?" style="rhombus;whiteSpace=wrap;html=1;fillColor=#fff2cc;strokeColor=#d6b656;" vertex="1" parent="erYnmfh7KymrD9iURdZM-28">
          <mxGeometry x="60.489999999999995" y="946" width="100.76" height="84" as="geometry" />
        </mxCell>
        <mxCell id="erYnmfh7KymrD9iURdZM-256" style="edgeStyle=orthogonalEdgeStyle;rounded=0;orthogonalLoop=1;jettySize=auto;html=1;entryX=1;entryY=0.5;entryDx=0;entryDy=0;" edge="1" parent="erYnmfh7KymrD9iURdZM-28" source="erYnmfh7KymrD9iURdZM-257" target="erYnmfh7KymrD9iURdZM-255">
          <mxGeometry relative="1" as="geometry">
            <mxPoint x="157.5" y="970" as="targetPoint" />
            <Array as="points">
              <mxPoint x="208" y="988" />
            </Array>
          </mxGeometry>
        </mxCell>
        <mxCell id="erYnmfh7KymrD9iURdZM-257" value="Leader turns around an angle selected at random&amp;nbsp;" style="rounded=1;whiteSpace=wrap;html=1;fillColor=#d5e8d4;strokeColor=#82b366;" vertex="1" parent="erYnmfh7KymrD9iURdZM-28">
          <mxGeometry x="142.5" y="1060" width="105" height="60" as="geometry" />
        </mxCell>
        <mxCell id="erYnmfh7KymrD9iURdZM-258" style="edgeStyle=orthogonalEdgeStyle;rounded=0;orthogonalLoop=1;jettySize=auto;html=1;" edge="1" parent="erYnmfh7KymrD9iURdZM-28" source="erYnmfh7KymrD9iURdZM-255" target="erYnmfh7KymrD9iURdZM-257">
          <mxGeometry relative="1" as="geometry">
            <Array as="points">
              <mxPoint x="111" y="1040" />
              <mxPoint x="178" y="1040" />
            </Array>
          </mxGeometry>
        </mxCell>
        <mxCell id="erYnmfh7KymrD9iURdZM-259" value="No" style="edgeLabel;html=1;align=center;verticalAlign=middle;resizable=0;points=[];" vertex="1" connectable="0" parent="erYnmfh7KymrD9iURdZM-258">
          <mxGeometry x="0.2391" y="-1" relative="1" as="geometry">
            <mxPoint x="-9" as="offset" />
          </mxGeometry>
        </mxCell>
        <mxCell id="erYnmfh7KymrD9iURdZM-277" value="" style="endArrow=classic;html=1;rounded=0;" edge="1" parent="erYnmfh7KymrD9iURdZM-28">
          <mxGeometry width="50" height="50" relative="1" as="geometry">
            <mxPoint x="20" y="760" as="sourcePoint" />
            <mxPoint x="20" y="570" as="targetPoint" />
          </mxGeometry>
        </mxCell>
        <mxCell id="erYnmfh7KymrD9iURdZM-271" style="edgeStyle=orthogonalEdgeStyle;rounded=0;orthogonalLoop=1;jettySize=auto;html=1;dashed=1;shape=link;" edge="1" parent="1" source="erYnmfh7KymrD9iURdZM-68" target="erYnmfh7KymrD9iURdZM-226">
          <mxGeometry relative="1" as="geometry">
            <Array as="points">
              <mxPoint x="64" y="790" />
              <mxPoint x="743" y="790" />
            </Array>
          </mxGeometry>
        </mxCell>
        <mxCell id="erYnmfh7KymrD9iURdZM-272" style="edgeStyle=orthogonalEdgeStyle;rounded=0;orthogonalLoop=1;jettySize=auto;html=1;entryX=0.5;entryY=1;entryDx=0;entryDy=0;shape=link;dashed=1;" edge="1" parent="1" source="erYnmfh7KymrD9iURdZM-201" target="erYnmfh7KymrD9iURdZM-226">
          <mxGeometry relative="1" as="geometry">
            <Array as="points">
              <mxPoint x="340" y="790" />
              <mxPoint x="743" y="790" />
            </Array>
          </mxGeometry>
        </mxCell>
        <mxCell id="erYnmfh7KymrD9iURdZM-274" style="edgeStyle=orthogonalEdgeStyle;rounded=0;orthogonalLoop=1;jettySize=auto;html=1;entryX=0;entryY=0.5;entryDx=0;entryDy=0;" edge="1" parent="1" source="erYnmfh7KymrD9iURdZM-63" target="erYnmfh7KymrD9iURdZM-237">
          <mxGeometry relative="1" as="geometry">
            <Array as="points">
              <mxPoint x="199" y="770" />
              <mxPoint x="580" y="770" />
              <mxPoint x="580" y="155" />
            </Array>
          </mxGeometry>
        </mxCell>
        <mxCell id="erYnmfh7KymrD9iURdZM-275" style="edgeStyle=orthogonalEdgeStyle;rounded=0;orthogonalLoop=1;jettySize=auto;html=1;" edge="1" parent="1" source="erYnmfh7KymrD9iURdZM-200" target="erYnmfh7KymrD9iURdZM-237">
          <mxGeometry relative="1" as="geometry">
            <Array as="points">
              <mxPoint x="475" y="770" />
              <mxPoint x="580" y="770" />
              <mxPoint x="580" y="155" />
            </Array>
          </mxGeometry>
        </mxCell>
        <mxCell id="erYnmfh7KymrD9iURdZM-278" value="" style="endArrow=classic;html=1;rounded=0;" edge="1" parent="1">
          <mxGeometry width="50" height="50" relative="1" as="geometry">
            <mxPoint x="505" y="770" as="sourcePoint" />
            <mxPoint x="575" y="770" as="targetPoint" />
          </mxGeometry>
        </mxCell>
      </root>
    </mxGraphModel>
  </diagram>
</mxfile>
